<svg xmlns="http://www.w3.org/2000/svg" width="1079" height="972" viewBox="0 0 1079 972">
<g>
<path d="M 0.00 0.00 L 1079.00 0.00 L 1079.00 972.00 L 0.00 972.00 ZM 567.91 754.07 C577.34,755.91 923.31,753.60 925.80,751.68 C927.95,750.02 939.00,729.66 939.00,727.37 C939.00,727.27 939.00,727.17 939.00,727.07 C939.01,726.49 939.01,725.99 938.84,725.55 C937.71,722.59 928.67,722.65 858.19,722.52 C778.42,722.38 760.48,721.75 731.00,718.02 C712.47,715.68 695.89,711.98 679.50,706.55 C653.31,697.86 637.27,688.25 621.32,671.68 C610.34,660.28 606.88,655.71 602.13,646.27 C599.82,641.69 598.31,639.86 596.41,639.39 C592.66,638.45 591.35,640.30 587.38,652.10 C583.61,663.28 583.59,664.03 586.46,678.00 C588.91,689.92 588.51,704.29 585.46,713.95 L 582.91 722.00 L 577.21 722.17 C567.54,722.46 562.64,721.92 559.05,720.17 C554.59,718.00 554.29,716.71 557.93,715.33 C560.21,714.47 561.58,712.68 563.96,707.43 C568.72,696.92 570.22,689.79 569.84,679.51 C569.53,671.32 569.12,669.73 565.33,662.00 C553.16,637.14 532.54,614.74 477.50,566.59 C402.54,501.01 385.18,483.50 364.61,452.69 C339.21,414.66 328.18,374.90 331.92,334.84 C334.63,305.84 348.06,279.37 371.21,257.40 C394.49,235.30 436.68,216.61 479.50,209.43 C492.91,207.17 531.43,204.74 532.24,206.10 C532.37,206.32 532.74,287.73 533.05,387.00 L 533.62 567.50 L 537.06 579.90 C540.55,592.48 542.89,596.34 545.01,593.00 C545.61,592.06 545.97,518.28 545.98,396.20 L 545.99 200.90 L 543.54 198.45 C541.31,196.22 540.30,196.00 532.30,196.00 C500.27,196.02 461.02,202.10 432.48,211.46 C393.63,224.21 366.61,243.08 344.37,272.99 C337.36,282.42 327.50,300.72 323.60,311.53 C312.46,342.40 312.80,385.55 324.45,420.50 C333.10,446.49 347.79,472.41 368.65,498.50 C382.48,515.79 437.39,569.26 459.23,586.68 C468.79,594.31 487.86,611.76 504.84,628.43 C519.60,642.91 531.17,656.41 539.88,669.33 C544.93,676.81 552.99,691.67 553.00,693.50 C553.00,694.05 551.46,695.73 549.57,697.23 C545.12,700.79 543.48,707.96 544.43,719.72 C545.38,731.35 547.22,736.63 552.72,743.45 C557.92,749.90 562.31,752.97 567.91,754.07 ZM 194.36 753.91 C196.09,754.41 204.53,754.86 213.12,754.91 C231.83,755.02 231.98,754.94 238.05,742.78 C243.07,732.73 252.08,720.36 253.04,722.19 C253.42,722.91 254.01,725.65 254.35,728.28 C255.77,739.25 264.03,750.34 272.83,753.11 C274.85,753.74 283.48,754.47 292.00,754.73 C306.82,755.17 307.62,755.10 310.29,752.99 C311.82,751.78 314.69,747.58 316.66,743.65 C320.55,735.91 330.91,720.58 331.71,721.38 C331.99,721.65 332.81,725.01 333.54,728.84 C335.21,737.62 337.76,742.65 342.91,747.30 C350.40,754.06 351.70,754.33 379.44,754.78 C406.33,755.22 412.33,754.60 421.77,750.42 C428.07,747.64 437.75,740.89 443.41,735.33 C451.32,727.57 457.83,708.50 456.42,697.21 C455.85,692.66 454.80,690.55 449.94,684.14 C446.75,679.94 438.90,670.88 432.48,664.00 C414.31,644.50 406.32,632.68 401.41,618.00 C398.88,610.44 399.02,597.83 401.75,587.64 C404.07,578.97 403.86,577.00 400.60,577.00 C396.44,577.00 385.54,593.85 381.96,605.80 C380.14,611.86 379.85,614.81 380.22,623.30 C380.76,635.39 382.92,642.24 390.22,654.89 C396.87,666.42 401.51,671.98 426.23,698.00 L 438.11 710.50 L 435.30 712.75 C431.26,715.99 418.67,719.91 408.92,720.96 C404.29,721.47 392.47,722.02 382.66,722.19 C380.73,722.22 378.95,722.29 377.31,722.35 C371.22,722.58 367.01,722.74 364.08,720.87 C357.53,716.70 357.44,702.36 357.16,655.88 C357.13,650.29 357.09,644.23 357.04,637.67 C356.51,569.40 356.46,567.80 354.51,566.38 C350.63,563.55 348.80,565.05 339.72,578.53 L 330.94 591.56 L 332.09 617.53 C333.31,645.28 332.85,663.82 330.50,681.49 C328.33,697.77 327.10,702.27 322.07,712.35 L 317.50 721.50 L 312.50 722.16 C309.75,722.53 302.70,722.86 296.82,722.91 C286.43,723.00 286.09,722.93 284.07,720.36 C282.93,718.91 281.23,715.42 280.28,712.61 C278.75,708.02 278.54,700.54 278.28,639.50 C278.12,602.10 277.76,570.50 277.48,569.28 C276.86,566.53 273.60,564.68 270.91,565.53 C269.80,565.88 265.07,571.92 260.39,578.94 L 251.88 591.71 L 253.04 620.68 C254.97,668.90 251.49,697.92 241.66,715.50 C238.42,721.31 238.15,721.52 233.40,722.16 C225.59,723.22 206.85,723.09 202.74,721.95 C197.97,720.62 195.48,718.00 191.87,710.50 L 188.99 704.50 L 189.02 411.23 C189.04,206.23 188.73,117.37 187.99,115.98 C187.40,114.89 185.90,114.00 184.62,114.00 C181.77,114.00 181.06,115.38 172.54,137.29 L 166.02 154.07 L 165.38 427.79 C164.92,627.28 165.05,703.60 165.86,709.26 C169.07,731.47 180.89,750.01 194.36,753.91 ZM 195.44 860.06 C197.12,860.47 229.87,860.84 268.21,860.90 C337.21,861.00 337.94,860.98 339.01,858.98 C339.78,857.55 339.79,855.31 339.05,851.29 C336.92,839.80 330.49,830.85 320.63,825.71 L 314.50 822.50 L 167.72 821.95 L 168.26 827.92 C169.59,842.64 181.51,856.73 195.44,860.06 ZM 318.47 564.75 C321.35,567.64 324.25,570.00 324.93,570.00 C327.05,570.00 336.78,559.09 339.45,553.72 C344.66,543.28 342.41,538.02 325.88,521.93 C319.35,515.57 314.00,509.76 314.00,509.02 C314.00,508.29 318.41,503.14 323.80,497.59 C335.41,485.63 338.46,480.22 338.48,471.48 C338.51,461.34 334.61,454.97 318.72,439.25 C311.36,431.96 304.71,426.00 303.96,426.00 C301.81,426.00 292.28,436.81 289.50,442.38 C284.15,453.12 286.11,457.50 304.15,475.06 C310.12,480.86 315.00,486.22 315.00,486.97 C315.00,487.71 310.59,492.86 305.19,498.41 C292.88,511.07 289.48,517.32 290.25,525.86 C291.10,535.18 295.84,542.92 307.54,554.06 C310.68,557.05 315.60,561.86 318.47,564.75 ZM 389.11 906.25 C396.69,913.81 403.45,920.00 404.14,920.00 C406.23,920.00 416.98,908.25 419.04,903.72 C421.81,897.62 421.58,891.17 418.44,886.39 C417.03,884.25 410.73,877.51 404.44,871.41 C398.15,865.31 393.00,859.72 393.00,859.00 C393.00,858.28 396.76,854.05 401.37,849.60 C414.56,836.83 418.61,829.41 417.79,819.51 C417.04,810.44 413.36,804.75 399.05,790.49 C391.87,783.35 385.05,777.35 383.89,777.17 C379.37,776.45 367.65,791.49 366.44,799.55 C365.52,805.72 368.27,809.93 382.43,823.98 C389.13,830.64 394.00,836.27 394.00,837.37 C394.00,838.45 389.86,843.42 384.51,848.77 C373.02,860.26 369.44,866.61 369.61,875.20 C369.79,884.87 373.32,890.48 389.11,906.25 ZM 237.62 536.41 C240.85,540.00 244.19,542.95 245.04,542.97 C247.19,543.01 255.40,534.34 258.01,529.27 C261.57,522.34 261.70,517.87 258.51,512.42 C254.46,505.52 226.65,478.00 223.72,478.00 C220.65,478.00 216.09,482.85 211.07,491.48 C204.27,503.15 205.44,506.57 220.91,520.29 C226.87,525.57 234.39,532.82 237.62,536.41 ZM 630.00 721.68 C630.00,721.86 621.22,722.00 610.50,722.00 C599.78,722.00 591.00,721.76 591.00,721.46 C591.00,721.16 591.86,719.24 592.90,717.19 C593.95,715.14 595.57,709.42 596.50,704.48 C597.42,699.54 598.38,694.87 598.62,694.11 C598.89,693.23 601.75,695.63 606.43,700.67 C610.49,705.04 617.46,711.48 621.91,714.99 C626.36,718.49 630.00,721.51 630.00,721.68 ZM 584.94 874.11 C577.96,878.35 577.10,879.13 579.98,878.60 C585.84,877.52 591.38,874.26 599.81,866.92 C608.28,859.56 611.61,858.00 618.88,858.00 C621.63,858.00 624.57,857.19 626.78,855.83 C629.32,854.26 631.63,853.72 635.10,853.88 C640.84,854.14 644.00,851.70 644.00,847.01 C644.00,844.28 643.32,843.68 636.20,840.10 L 628.41 836.18 L 626.19 841.01 C624.96,843.69 624.09,847.33 624.24,849.17 L 624.50 852.50 L 618.00 853.02 C610.07,853.65 608.28,854.61 599.94,862.64 C596.33,866.12 589.58,871.28 584.94,874.11 ZM 649.75 856.27 C651.25,857.93 652.34,858.11 657.50,857.56 C665.43,856.71 666.99,856.71 670.23,857.53 C674.87,858.71 677.88,857.26 681.00,852.35 C684.02,847.57 685.44,842.02 686.43,831.04 C686.80,826.94 686.66,824.94 686.06,825.54 C684.60,827.01 682.00,837.91 682.00,842.58 C682.00,848.54 679.04,852.00 673.93,852.00 L 673.74 852.00 C671.58,852.00 670.54,852.00 670.26,851.54 C669.99,851.11 670.37,850.28 671.09,848.70 L 671.16 848.55 C672.68,845.20 670.91,841.00 667.97,841.00 C665.32,841.00 661.31,845.32 660.48,849.08 C659.93,851.62 659.39,852.00 656.40,852.00 C653.57,852.00 652.76,851.51 651.87,849.25 C650.85,846.65 651.26,832.85 652.58,825.50 C653.03,823.03 652.93,822.81 652.01,824.25 C650.30,826.94 648.00,840.43 648.00,847.76 C648.00,852.62 648.46,854.85 649.75,856.27 ZM 492.00 858.95 C488.96,861.36 489.48,861.45 495.04,859.49 C497.40,858.65 499.98,857.05 500.76,855.93 C502.13,853.97 502.25,853.96 503.52,855.69 C504.79,857.43 508.95,857.82 519.00,857.13 C520.38,857.03 523.45,857.24 525.83,857.59 C529.64,858.15 530.50,857.90 533.01,855.49 C537.17,851.51 539.71,844.68 540.84,834.49 C541.38,829.55 541.65,825.32 541.43,825.10 C540.48,824.14 537.66,832.96 537.29,838.00 C536.72,845.89 536.20,847.80 533.97,850.03 C531.52,852.48 522.93,853.00 524.94,850.57 C526.28,848.96 526.67,843.89 525.59,842.14 C525.20,841.51 523.81,841.00 522.49,841.00 C519.68,841.00 515.00,846.54 515.00,849.88 C515.00,852.45 512.97,853.46 509.51,852.59 C506.49,851.83 505.38,848.23 506.86,843.98 C508.40,839.55 506.39,841.33 504.16,846.38 C502.45,850.23 500.60,852.15 492.00,858.95 ZM 870.97 855.97 C872.88,857.88 873.88,858.10 878.34,857.57 C885.02,856.78 887.60,856.78 892.62,857.55 C895.57,858.01 897.70,857.69 900.12,856.45 C904.92,853.99 920.00,842.94 920.00,841.88 C920.00,841.40 918.78,841.00 917.28,841.00 C915.79,841.00 912.61,840.25 910.23,839.34 C906.20,837.80 905.64,837.80 902.44,839.33 C898.47,841.22 897.78,843.34 901.45,842.42 C902.79,842.09 905.53,842.35 907.52,843.01 L 911.15 844.21 L 908.96 846.55 C905.45,850.28 900.73,852.00 893.97,852.00 L 887.75 852.00 L 888.96 845.50 L 885.88 849.25 C883.45,852.22 882.11,853.00 879.47,853.00 C875.33,853.00 873.05,850.82 872.85,846.68 C872.59,841.41 873.15,831.76 873.96,827.27 C874.39,824.95 874.38,823.27 873.94,823.53 C872.72,824.29 870.21,836.63 869.45,845.63 C868.81,853.17 868.92,853.92 870.97,855.97 ZM 447.01 862.12 C447.02,862.88 448.19,862.02 449.62,860.20 L 452.22 856.90 L 459.10 857.58 C465.87,858.25 466.07,858.20 471.38,854.54 C475.98,851.37 477.10,850.98 478.89,851.94 C481.37,853.27 483.36,852.41 487.00,848.47 C489.37,845.90 489.41,845.71 487.66,844.63 C482.45,841.41 482.42,841.35 485.76,839.62 C487.49,838.73 489.77,838.00 490.84,838.00 C491.90,838.00 493.50,836.89 494.38,835.54 C496.49,832.32 496.43,832.00 493.75,832.00 C490.67,832.01 485.85,835.10 482.93,838.95 C481.59,840.71 478.48,844.43 476.00,847.20 L 471.50 852.26 L 463.39 851.69 C457.22,851.25 454.79,851.46 453.22,852.56 C450.81,854.24 447.00,860.12 447.01,862.12 ZM 722.50 862.81 C725.40,864.45 740.85,864.25 749.79,862.45 C759.97,860.40 767.35,856.78 769.95,852.58 C772.79,847.99 772.52,847.39 768.95,850.38 C767.28,851.79 764.02,853.49 761.70,854.15 C759.39,854.81 756.90,855.81 756.17,856.37 C755.43,856.93 748.36,857.58 740.46,857.82 C727.24,858.21 725.80,858.08 722.54,856.16 L 719.00 854.07 L 719.02 856.78 C719.03,859.98 719.78,861.26 722.50,862.81 ZM 785.82 874.25 C777.16,879.24 777.32,880.36 786.21,877.01 C789.39,875.81 794.50,872.43 799.00,868.54 C808.54,860.29 810.60,859.16 817.96,858.16 C821.49,857.67 824.86,856.54 826.13,855.42 C828.42,853.38 831.31,847.47 832.44,842.50 L 833.13 839.50 L 831.00 841.59 C829.83,842.74 828.27,845.44 827.53,847.59 C826.22,851.43 826.08,851.51 820.16,852.18 C812.52,853.05 811.18,853.79 801.78,862.42 C797.53,866.31 790.35,871.64 785.82,874.25 ZM 573.89 860.89 C576.51,863.51 577.08,863.51 580.39,860.91 C586.26,856.29 587.83,848.06 583.59,844.08 C580.15,840.85 577.86,841.75 575.16,847.39 C571.69,854.68 571.34,858.34 573.89,860.89 ZM 779.32 855.75 C778.43,859.47 779.99,858.29 781.95,853.75 C783.80,849.50 786.73,826.61 785.77,823.90 C784.90,821.41 781.21,836.26 780.53,845.00 C780.16,849.67 779.62,854.51 779.32,855.75 ZM 546.58 845.75 C545.91,851.94 545.68,857.00 546.07,857.00 C547.74,857.00 549.84,848.66 551.01,837.40 C551.70,830.74 552.05,824.67 551.79,823.90 C550.91,821.34 547.81,834.35 546.58,845.75 ZM 691.04 854.00 L 691.08 857.50 L 692.69 854.53 C694.31,851.53 696.97,833.83 696.89,826.50 L 696.85 822.50 L 695.01 827.68 C693.17,832.87 690.97,847.42 691.04,854.00 ZM 855.41 850.10 C853.77,851.91 853.79,852.00 855.76,852.00 C856.89,852.00 859.02,850.57 860.49,848.83 C862.68,846.23 863.04,845.04 862.52,842.23 C862.04,839.70 862.33,838.29 863.61,836.88 C864.80,835.57 865.03,834.63 864.33,833.93 C863.64,833.24 862.11,834.24 859.56,837.06 C856.26,840.72 855.89,841.62 856.47,844.70 C856.96,847.29 856.68,848.69 855.41,850.10 ZM 927.50 849.50 C926.96,856.62 927.05,857.30 928.36,855.68 C930.15,853.45 931.77,844.44 932.53,832.50 C933.08,823.91 933.03,823.65 931.59,826.77 C929.76,830.72 928.32,838.75 927.50,849.50 ZM 657.25 838.34 C659.52,839.25 660.74,839.02 662.07,837.41 C662.93,836.38 664.31,836.01 666.07,836.36 C669.51,837.05 674.45,832.53 671.97,830.96 C669.77,829.57 667.40,829.81 665.95,831.56 C665.10,832.59 663.81,832.92 662.21,832.52 C658.29,831.53 653.72,836.91 657.25,838.34 ZM 511.13 837.66 C512.63,839.46 515.46,839.35 517.05,837.44 C517.83,836.50 519.21,836.09 520.49,836.41 C522.94,837.02 527.00,834.57 527.00,832.48 C527.00,831.70 526.16,830.62 525.13,830.07 C523.68,829.29 522.84,829.52 521.42,831.09 C520.13,832.52 518.87,832.93 517.16,832.50 C513.99,831.71 509.43,835.61 511.13,837.66 ZM 480.59 858.15 C481.35,859.38 485.76,859.20 486.56,857.91 C486.93,857.30 488.29,857.01 489.58,857.26 C491.14,857.56 492.64,856.95 494.06,855.44 L 496.19 853.17 L 494.01 852.01 C492.24,851.06 491.48,851.16 489.95,852.55 C488.85,853.54 487.20,854.02 485.99,853.71 C483.80,853.14 479.62,856.58 480.59,858.15 ZM 740.46 844.94 C741.43,846.50 744.56,846.23 746.04,844.46 C746.90,843.42 748.22,843.11 750.06,843.51 C752.18,843.98 753.16,843.61 754.36,841.90 C755.22,840.67 755.68,839.30 755.40,838.84 C754.54,837.45 751.33,837.89 749.93,839.59 C749.06,840.63 747.69,840.99 745.92,840.63 C742.99,840.05 739.26,842.99 740.46,844.94 ZM 879.13 868.65 C880.73,870.59 882.67,870.32 884.34,867.93 C885.61,866.10 886.05,866.01 887.94,867.18 C889.85,868.36 890.29,868.23 891.97,866.03 C893.00,864.67 893.63,863.21 893.36,862.78 C892.54,861.45 889.31,861.92 887.95,863.56 C887.10,864.59 885.81,864.92 884.21,864.52 C881.03,863.72 877.45,866.63 879.13,868.65 ZM 447.47 847.96 C448.42,849.50 451.57,849.22 453.02,847.48 C453.76,846.58 455.06,846.20 456.19,846.56 C458.53,847.30 461.00,845.41 461.00,842.88 C461.00,840.49 458.80,840.46 456.66,842.83 C455.57,844.03 454.05,844.51 452.19,844.24 C449.22,843.81 446.32,846.09 447.47,847.96 ZM 926.00 871.06 C926.00,872.81 927.85,872.01 929.94,869.34 C931.21,867.73 931.80,865.94 931.43,864.79 C931.10,863.75 931.39,862.24 932.06,861.43 C932.73,860.62 932.96,859.63 932.55,859.23 C931.25,857.93 926.91,864.32 927.48,866.69 C927.77,867.89 927.56,869.16 927.00,869.50 C926.45,869.84 926.00,870.54 926.00,871.06 ZM 580.84 857.12 C580.10,857.59 579.05,857.97 578.50,857.97 C576.32,857.97 574.84,856.16 575.16,853.89 C575.43,851.98 576.10,851.50 578.50,851.50 C580.90,851.50 581.57,851.98 581.84,853.89 C582.02,855.20 581.57,856.66 580.84,857.12 ZM 744.08 836.07 C746.12,837.36 746.39,837.27 749.05,834.45 C751.07,832.29 751.22,831.75 749.97,830.96 C747.57,829.44 746.14,829.85 744.35,832.59 C742.91,834.79 742.87,835.30 744.08,836.07 ZM 819.44 838.90 C819.81,839.50 821.23,840.00 822.59,840.00 C825.80,840.00 826.93,837.16 824.45,835.34 C822.83,834.15 822.33,834.23 820.67,835.89 C819.62,836.94 819.06,838.29 819.44,838.90 ZM 631.80 847.80 C630.15,849.45 628.05,849.30 627.36,847.49 C626.60,845.53 628.72,843.00 631.12,843.00 C633.26,843.00 633.67,845.93 631.80,847.80 ZM 828.46 836.94 C829.48,838.59 831.51,838.20 833.56,835.94 C835.15,834.18 835.21,833.74 833.96,832.95 C831.92,831.66 831.54,831.75 829.56,833.94 C828.59,835.00 828.10,836.35 828.46,836.94 ZM 667.42 850.39 C666.55,850.73 665.76,850.96 665.67,850.92 C665.58,850.88 664.94,850.62 664.25,850.34 C661.21,849.11 664.63,844.60 667.75,845.72 C669.53,846.36 669.30,849.67 667.42,850.39 ZM 524.00 848.09 C524.00,849.30 520.72,850.81 519.25,850.28 C517.55,849.67 517.68,847.51 519.50,846.00 C520.70,845.01 521.30,845.01 522.50,846.00 C523.33,846.68 524.00,847.62 524.00,848.09 ZM 572.47 838.96 C573.45,840.54 575.50,840.21 577.35,838.17 C579.15,836.17 578.64,835.00 575.96,835.00 C573.84,835.00 571.60,837.54 572.47,838.96 ZM 580.47 836.96 C581.33,838.35 583.32,838.28 584.80,836.80 C586.60,835.00 586.24,833.00 584.12,833.00 C581.87,833.00 579.57,835.49 580.47,836.96 ZM 640.50 848.11 C640.50,848.89 639.26,849.64 637.66,849.83 C635.10,850.12 634.89,849.92 635.53,847.83 C635.93,846.55 636.44,845.29 636.67,845.04 C637.43,844.21 640.50,846.68 640.50,848.11 Z" fill="rgb(37,37,37)"/>
<path d="M 567.91 754.07 C562.31,752.97 557.92,749.90 552.72,743.45 C547.22,736.63 545.38,731.35 544.43,719.72 C543.48,707.96 545.12,700.79 549.57,697.23 C551.46,695.73 553.00,694.05 553.00,693.50 C552.99,691.67 544.93,676.81 539.88,669.33 C531.17,656.41 519.60,642.91 504.84,628.43 C487.86,611.76 468.79,594.31 459.23,586.68 C437.39,569.26 382.48,515.79 368.65,498.50 C347.79,472.41 333.10,446.49 324.45,420.50 C312.80,385.55 312.46,342.40 323.60,311.53 C327.50,300.72 337.36,282.42 344.37,272.99 C366.61,243.08 393.63,224.21 432.48,211.46 C461.02,202.10 500.27,196.02 532.30,196.00 C540.30,196.00 541.31,196.22 543.54,198.45 L 545.99 200.90 L 545.98 396.20 C545.97,518.28 545.61,592.06 545.01,593.00 C542.89,596.34 540.55,592.48 537.06,579.90 L 533.62 567.50 L 533.05 387.00 C532.74,287.73 532.37,206.32 532.24,206.10 C531.43,204.74 492.91,207.17 479.50,209.43 C436.68,216.61 394.49,235.30 371.21,257.40 C348.06,279.37 334.63,305.84 331.92,334.84 C328.18,374.90 339.21,414.66 364.61,452.69 C385.18,483.50 402.54,501.01 477.50,566.59 C532.54,614.74 553.16,637.14 565.33,662.00 C569.12,669.73 569.53,671.32 569.84,679.51 C570.22,689.79 568.72,696.92 563.96,707.43 C561.58,712.68 560.21,714.47 557.93,715.33 C554.29,716.71 554.59,718.00 559.05,720.17 C562.64,721.92 567.54,722.46 577.21,722.17 L 582.91 722.00 L 585.46 713.95 C588.51,704.29 588.91,689.92 586.46,678.00 C583.59,664.03 583.61,663.28 587.38,652.10 C591.35,640.30 592.66,638.45 596.41,639.39 C598.31,639.86 599.82,641.69 602.13,646.27 C606.88,655.71 610.34,660.28 621.32,671.68 C637.27,688.25 653.31,697.86 679.50,706.55 C695.89,711.98 712.47,715.68 731.00,718.02 C760.48,721.75 778.42,722.38 858.19,722.52 C928.67,722.65 937.71,722.59 938.84,725.55 C939.01,725.99 939.01,726.49 939.00,727.07 C939.00,727.17 939.00,727.27 939.00,727.37 C939.00,729.66 927.95,750.02 925.80,751.68 C923.31,753.60 577.34,755.91 567.91,754.07 ZM 194.36 753.91 C180.89,750.01 169.07,731.47 165.86,709.26 C165.05,703.60 164.92,627.28 165.38,427.79 L 166.02 154.07 L 172.54 137.29 C181.06,115.38 181.77,114.00 184.62,114.00 C185.90,114.00 187.40,114.89 187.99,115.98 C188.73,117.37 189.04,206.23 189.02,411.23 L 188.99 704.50 L 191.87 710.50 C195.48,718.00 197.97,720.62 202.74,721.95 C206.85,723.09 225.59,723.22 233.40,722.16 C238.15,721.52 238.42,721.31 241.66,715.50 C251.49,697.92 254.97,668.90 253.04,620.68 L 251.88 591.71 L 260.39 578.94 C265.07,571.92 269.80,565.88 270.91,565.53 C273.60,564.68 276.86,566.53 277.48,569.28 C277.76,570.50 278.12,602.10 278.28,639.50 C278.54,700.54 278.75,708.02 280.28,712.61 C281.23,715.42 282.93,718.91 284.07,720.36 C286.09,722.93 286.43,723.00 296.82,722.91 C302.70,722.86 309.75,722.53 312.50,722.16 L 317.50 721.50 L 322.07 712.35 C327.10,702.27 328.33,697.77 330.50,681.49 C332.85,663.82 333.31,645.28 332.09,617.53 L 330.94 591.56 L 339.72 578.53 C348.80,565.05 350.63,563.55 354.51,566.38 C356.46,567.80 356.51,569.40 357.04,637.67 C357.09,644.23 357.13,650.29 357.16,655.88 C357.44,702.36 357.53,716.70 364.08,720.87 C367.01,722.74 371.22,722.58 377.31,722.35 C378.95,722.29 380.73,722.22 382.66,722.19 C392.47,722.02 404.29,721.47 408.92,720.96 C418.67,719.91 431.26,715.99 435.30,712.75 L 438.11 710.50 L 426.23 698.00 C401.51,671.98 396.87,666.42 390.22,654.89 C382.92,642.24 380.76,635.39 380.22,623.30 C379.85,614.81 380.14,611.86 381.96,605.80 C385.54,593.85 396.44,577.00 400.60,577.00 C403.86,577.00 404.07,578.97 401.75,587.64 C399.02,597.83 398.88,610.44 401.41,618.00 C406.32,632.68 414.31,644.50 432.48,664.00 C438.90,670.88 446.75,679.94 449.94,684.14 C454.80,690.55 455.85,692.66 456.42,697.21 C457.83,708.50 451.32,727.57 443.41,735.33 C437.75,740.89 428.07,747.64 421.77,750.42 C412.33,754.60 406.33,755.22 379.44,754.78 C351.70,754.33 350.40,754.06 342.91,747.30 C337.76,742.65 335.21,737.62 333.54,728.84 C332.81,725.01 331.99,721.65 331.71,721.38 C330.91,720.58 320.55,735.91 316.66,743.65 C314.69,747.58 311.82,751.78 310.29,752.99 C307.62,755.10 306.82,755.17 292.00,754.73 C283.48,754.47 274.85,753.74 272.83,753.11 C264.03,750.34 255.77,739.25 254.35,728.28 C254.01,725.65 253.42,722.91 253.04,722.19 C252.08,720.36 243.07,732.73 238.05,742.78 C231.98,754.94 231.83,755.02 213.12,754.91 C204.53,754.86 196.09,754.41 194.36,753.91 ZM 318.47 564.75 C315.60,561.86 310.68,557.05 307.54,554.06 C295.84,542.92 291.10,535.18 290.25,525.86 C289.48,517.32 292.88,511.07 305.19,498.41 C310.59,492.86 315.00,487.71 315.00,486.97 C315.00,486.22 310.12,480.86 304.15,475.06 C286.11,457.50 284.15,453.12 289.50,442.38 C292.28,436.81 301.81,426.00 303.96,426.00 C304.71,426.00 311.36,431.96 318.72,439.25 C334.61,454.97 338.51,461.34 338.48,471.48 C338.46,480.22 335.41,485.63 323.80,497.59 C318.41,503.14 314.00,508.29 314.00,509.02 C314.00,509.76 319.35,515.57 325.88,521.93 C342.41,538.02 344.66,543.28 339.45,553.72 C336.78,559.09 327.05,570.00 324.93,570.00 C324.25,570.00 321.35,567.64 318.47,564.75 ZM 389.11 906.25 C373.32,890.48 369.79,884.87 369.61,875.20 C369.44,866.61 373.02,860.26 384.51,848.77 C389.86,843.42 394.00,838.45 394.00,837.37 C394.00,836.27 389.13,830.64 382.43,823.98 C368.27,809.93 365.52,805.72 366.44,799.55 C367.65,791.49 379.37,776.45 383.89,777.17 C385.05,777.35 391.87,783.35 399.05,790.49 C413.36,804.75 417.04,810.44 417.79,819.51 C418.61,829.41 414.56,836.83 401.37,849.60 C396.76,854.05 393.00,858.28 393.00,859.00 C393.00,859.72 398.15,865.31 404.44,871.41 C410.73,877.51 417.03,884.25 418.44,886.39 C421.58,891.17 421.81,897.62 419.04,903.72 C416.98,908.25 406.23,920.00 404.14,920.00 C403.45,920.00 396.69,913.81 389.11,906.25 ZM 237.62 536.41 C234.39,532.82 226.87,525.57 220.91,520.29 C205.44,506.57 204.27,503.15 211.07,491.48 C216.09,482.85 220.65,478.00 223.72,478.00 C226.65,478.00 254.46,505.52 258.51,512.42 C261.70,517.87 261.57,522.34 258.01,529.27 C255.40,534.34 247.19,543.01 245.04,542.97 C244.19,542.95 240.85,540.00 237.62,536.41 ZM 630.00 721.68 C630.00,721.51 626.36,718.49 621.91,714.99 C617.46,711.48 610.49,705.04 606.43,700.67 C601.75,695.63 598.89,693.23 598.62,694.11 C598.38,694.87 597.42,699.54 596.50,704.48 C595.57,709.42 593.95,715.14 592.90,717.19 C591.86,719.24 591.00,721.16 591.00,721.46 C591.00,721.76 599.78,722.00 610.50,722.00 C621.22,722.00 630.00,721.86 630.00,721.68 Z" fill="rgb(47,117,161)"/>
<path d="M 649.75 856.27 C648.46,854.85 648.00,852.62 648.00,847.76 C648.00,840.43 650.30,826.94 652.01,824.25 C652.93,822.81 653.03,823.03 652.58,825.50 C651.26,832.85 650.85,846.65 651.87,849.25 C652.76,851.51 653.57,852.00 656.40,852.00 C659.39,852.00 659.93,851.62 660.48,849.08 C661.31,845.32 665.32,841.00 667.97,841.00 C670.91,841.00 672.68,845.20 671.16,848.55 L 671.09 848.70 C670.37,850.28 669.99,851.11 670.26,851.54 C670.54,852.00 671.58,852.00 673.74,852.00 L 673.93 852.00 C679.04,852.00 682.00,848.54 682.00,842.58 C682.00,837.91 684.60,827.01 686.06,825.54 C686.66,824.94 686.80,826.94 686.43,831.04 C685.44,842.02 684.02,847.57 681.00,852.35 C678.32,856.57 675.72,858.23 672.10,857.87 C673.62,857.62 675.22,856.83 676.69,855.53 L 679.50 853.06 L 674.88 853.03 C672.33,853.01 668.29,852.31 665.89,851.46 C661.97,850.08 661.42,850.08 660.40,851.46 C658.52,854.04 653.45,853.38 651.12,850.25 L 649.06 847.50 L 649.03 850.68 C648.98,856.00 651.25,857.31 659.63,856.77 C663.44,856.53 667.13,856.67 668.08,857.08 C665.88,856.76 663.53,856.91 657.50,857.56 C652.34,858.11 651.25,857.93 649.75,856.27 ZM 785.82 874.25 C790.35,871.64 797.53,866.31 801.78,862.42 C811.18,853.79 812.52,853.05 820.16,852.18 C826.08,851.51 826.22,851.43 827.53,847.59 C828.27,845.44 829.83,842.74 831.00,841.59 L 833.13 839.50 L 832.44 842.50 C831.31,847.47 828.42,853.38 826.13,855.42 C824.86,856.54 821.49,857.67 817.96,858.16 C810.60,859.16 808.54,860.29 799.00,868.54 C794.50,872.43 789.39,875.81 786.21,877.01 C777.32,880.36 777.16,879.24 785.82,874.25 ZM 447.01 862.12 C447.00,860.12 450.81,854.24 453.22,852.56 C454.00,852.01 455.00,851.69 456.56,851.55 C456.07,851.65 455.57,851.88 455.02,852.22 C452.18,853.99 452.51,855.79 455.75,856.28 C461.04,857.08 464.89,856.99 467.50,856.00 C471.12,854.62 469.70,853.00 464.88,853.00 C462.67,853.00 460.01,852.54 458.96,851.98 C458.44,851.70 457.96,851.54 457.48,851.49 C458.95,851.44 460.86,851.51 463.39,851.69 L 471.50 852.26 L 476.00 847.20 C478.48,844.43 481.59,840.71 482.93,838.95 C485.85,835.10 490.67,832.01 493.75,832.00 C496.43,832.00 496.49,832.32 494.38,835.54 C493.50,836.89 491.90,838.00 490.84,838.00 C489.77,838.00 487.49,838.73 485.76,839.62 C482.42,841.35 482.45,841.41 487.66,844.63 C489.41,845.71 489.37,845.90 487.00,848.47 C483.36,852.41 481.37,853.27 478.89,851.94 C477.10,850.98 475.98,851.37 471.38,854.54 C466.07,858.20 465.87,858.25 459.10,857.58 L 452.22 856.90 L 449.62 860.20 C448.19,862.02 447.02,862.88 447.01,862.12 ZM 573.89 860.89 C571.34,858.34 571.69,854.68 575.16,847.39 C577.86,841.75 580.15,840.85 583.59,844.08 C587.83,848.06 586.26,856.29 580.39,860.91 C577.08,863.51 576.51,863.51 573.89,860.89 ZM 513.97 857.40 C517.08,857.08 521.48,856.89 524.34,856.95 C529.80,857.08 533.00,855.94 533.00,853.88 C533.00,853.39 530.97,853.00 528.49,853.00 C526.00,853.00 523.08,852.55 521.99,852.00 C520.89,851.45 519.11,850.55 518.03,850.01 C516.47,849.23 515.84,849.43 514.99,851.01 C514.85,851.28 514.68,851.53 514.48,851.74 C514.82,851.26 515.00,850.64 515.00,849.88 C515.00,846.54 519.68,841.00 522.49,841.00 C523.81,841.00 525.20,841.51 525.59,842.14 C526.67,843.89 526.28,848.96 524.94,850.57 C522.93,853.00 531.52,852.48 533.97,850.03 C536.20,847.80 536.72,845.89 537.29,838.00 C537.66,832.96 540.48,824.14 541.43,825.10 C541.65,825.32 541.38,829.55 540.84,834.49 C539.71,844.68 537.17,851.51 533.01,855.49 C530.50,857.90 529.64,858.15 525.83,857.59 C523.45,857.24 520.38,857.03 519.00,857.13 C517.12,857.25 515.45,857.35 513.97,857.40 ZM 641.55 845.75 C642.26,847.38 642.34,847.37 642.75,845.62 C642.91,844.96 642.80,844.22 642.50,843.65 C643.80,844.69 644.00,845.54 644.00,847.01 C644.00,851.70 640.84,854.14 635.10,853.88 C632.73,853.77 630.91,853.98 629.18,854.63 L 629.19 854.63 C634.59,851.81 635.47,851.00 634.54,849.72 C633.74,848.63 632.93,848.46 631.72,849.14 C630.63,849.75 629.33,849.71 628.08,849.04 C625.40,847.61 625.18,847.69 624.82,850.25 C624.75,850.77 624.63,851.18 624.42,851.51 L 624.24 849.17 C624.09,847.33 624.96,843.69 626.19,841.01 L 628.41 836.18 L 636.20 840.10 C637.49,840.75 638.57,841.30 639.47,841.79 C635.90,840.38 630.44,839.00 629.38,839.41 C627.11,840.28 627.82,842.00 630.44,842.00 C631.78,842.00 633.16,842.45 633.50,843.00 C633.84,843.55 635.62,844.00 637.45,844.00 C639.67,844.00 641.04,844.59 641.55,845.75 ZM 879.55 853.00 C882.14,852.99 883.47,852.19 885.88,849.25 L 888.96 845.50 L 887.75 852.00 L 893.97 852.00 C900.73,852.00 905.45,850.28 908.96,846.55 L 911.15 844.21 L 907.52 843.01 C905.53,842.35 902.79,842.09 901.45,842.42 C897.78,843.34 898.47,841.22 902.44,839.33 C905.64,837.80 906.20,837.80 910.23,839.34 C912.61,840.25 915.79,841.00 917.28,841.00 C918.78,841.00 920.00,841.40 920.00,841.88 C920.00,842.94 904.92,853.99 900.12,856.45 C899.60,856.72 899.09,856.95 898.58,857.13 C899.12,856.85 899.65,856.49 900.26,856.01 C901.77,854.82 903.00,853.54 903.00,853.14 C903.00,852.75 899.85,852.61 895.99,852.83 C891.51,853.08 888.46,852.80 887.55,852.04 C886.52,851.18 885.58,851.15 884.13,851.93 C882.73,852.68 881.13,853.03 879.55,853.00 ZM 584.94 874.11 C589.58,871.28 596.33,866.12 599.94,862.64 C608.28,854.61 610.07,853.65 618.00,853.02 L 621.21 852.76 C620.59,852.85 619.86,852.92 619.00,853.00 C613.85,853.47 606.00,857.06 606.00,858.95 C606.00,859.38 607.91,859.36 610.25,858.91 C611.29,858.71 612.62,858.52 613.97,858.37 C609.60,859.16 606.13,861.42 599.81,866.92 C591.38,874.26 585.84,877.52 579.98,878.60 C577.10,879.13 577.96,878.35 584.94,874.11 ZM 779.32 855.75 C779.62,854.51 780.16,849.67 780.53,845.00 C781.21,836.26 784.90,821.41 785.77,823.90 C786.73,826.61 783.80,849.50 781.95,853.75 C779.99,858.29 778.43,859.47 779.32,855.75 ZM 546.58 845.75 C547.81,834.35 550.91,821.34 551.79,823.90 C552.05,824.67 551.70,830.74 551.01,837.40 C549.84,848.66 547.74,857.00 546.07,857.00 C545.68,857.00 545.91,851.94 546.58,845.75 ZM 691.04 854.00 C690.97,847.42 693.17,832.87 695.01,827.68 L 696.85 822.50 L 696.89 826.50 C696.97,833.83 694.31,851.53 692.69,854.53 L 691.08 857.50 ZM 855.41 850.10 C856.68,848.69 856.96,847.29 856.47,844.70 C855.89,841.62 856.26,840.72 859.56,837.06 C862.11,834.24 863.64,833.24 864.33,833.93 C865.03,834.63 864.80,835.57 863.61,836.88 C862.33,838.29 862.04,839.70 862.52,842.23 C863.04,845.04 862.68,846.23 860.49,848.83 C859.02,850.57 856.89,852.00 855.76,852.00 C853.79,852.00 853.77,851.91 855.41,850.10 ZM 927.50 849.50 C928.32,838.75 929.76,830.72 931.59,826.77 C933.03,823.65 933.08,823.91 932.53,832.50 C931.77,844.44 930.15,853.45 928.36,855.68 C927.05,857.30 926.96,856.62 927.50,849.50 ZM 657.25 838.34 C653.72,836.91 658.29,831.53 662.21,832.52 C663.81,832.92 665.10,832.59 665.95,831.56 C667.40,829.81 669.77,829.57 671.97,830.96 C674.45,832.53 669.51,837.05 666.07,836.36 C664.31,836.01 662.93,836.38 662.07,837.41 C660.74,839.02 659.52,839.25 657.25,838.34 ZM 511.13 837.66 C509.43,835.61 513.99,831.71 517.16,832.50 C518.87,832.93 520.13,832.52 521.42,831.09 C522.84,829.52 523.68,829.29 525.13,830.07 C526.16,830.62 527.00,831.70 527.00,832.48 C527.00,834.57 522.94,837.02 520.49,836.41 C519.21,836.09 517.83,836.50 517.05,837.44 C515.46,839.35 512.63,839.46 511.13,837.66 ZM 870.97 855.97 C868.92,853.92 868.81,853.17 869.45,845.63 C870.21,836.63 872.72,824.29 873.94,823.53 C874.38,823.27 874.39,824.95 873.96,827.27 C873.15,831.76 872.59,841.41 872.85,846.68 C872.97,849.22 873.88,851.02 875.51,852.03 C874.77,851.66 874.09,851.18 873.52,850.61 C872.20,849.29 870.87,848.46 870.56,848.77 C869.10,850.23 870.26,854.06 872.74,856.01 C874.17,857.13 875.24,857.65 876.70,857.74 C873.59,858.01 872.62,857.62 870.97,855.97 ZM 492.00 858.95 C500.60,852.15 502.45,850.23 504.16,846.38 C506.39,841.33 508.40,839.55 506.86,843.98 C505.38,848.23 506.49,851.83 509.51,852.59 C510.52,852.85 511.41,852.94 512.16,852.88 C510.66,853.06 508.77,852.61 506.65,851.50 C503.96,850.10 502.00,850.23 502.00,851.82 C502.00,852.20 503.19,853.80 504.64,855.37 C505.38,856.16 505.94,856.73 506.49,857.13 C504.94,856.84 504.01,856.37 503.52,855.69 C502.25,853.96 502.13,853.97 500.76,855.93 C499.98,857.05 497.40,858.65 495.04,859.49 C489.48,861.45 488.96,861.36 492.00,858.95 ZM 480.59 858.15 C479.62,856.58 483.80,853.14 485.99,853.71 C487.20,854.02 488.85,853.54 489.95,852.55 C491.48,851.16 492.24,851.06 494.01,852.01 L 496.19 853.17 L 494.06 855.44 C492.64,856.95 491.14,857.56 489.58,857.26 C488.29,857.01 486.93,857.30 486.56,857.91 C485.76,859.20 481.35,859.38 480.59,858.15 ZM 478.75 850.92 C481.28,852.40 481.64,852.30 485.20,849.11 C487.99,846.62 488.25,846.01 487.09,844.61 C485.23,842.37 482.05,842.60 479.31,845.17 C476.55,847.77 476.38,849.54 478.75,850.92 ZM 580.00 850.80 C584.60,853.65 585.00,853.57 585.00,849.83 C585.00,843.74 579.05,840.60 576.82,845.50 C576.19,846.88 575.86,848.15 576.09,848.32 C576.31,848.49 578.08,849.61 580.00,850.80 ZM 809.25 857.19 C808.37,858.26 809.57,858.41 815.72,858.00 C822.13,857.58 823.49,857.16 824.76,855.25 C826.22,853.03 826.18,853.00 821.74,853.00 C817.01,853.00 811.09,854.99 809.25,857.19 ZM 763.43 857.96 C765.32,855.86 762.62,855.37 755.78,856.59 C755.43,856.65 755.04,856.72 754.63,856.78 C755.45,856.64 755.99,856.50 756.17,856.37 C756.90,855.81 759.39,854.81 761.70,854.15 C764.02,853.49 767.28,851.79 768.95,850.38 C772.52,847.39 772.79,847.99 769.95,852.58 C768.74,854.54 766.50,856.36 763.43,857.96 ZM 926.00 871.06 C926.00,870.54 926.45,869.84 927.00,869.50 C927.56,869.16 927.77,867.89 927.48,866.69 C926.91,864.32 931.25,857.93 932.55,859.23 C932.96,859.63 932.73,860.62 932.06,861.43 C931.39,862.24 931.10,863.75 931.43,864.79 C931.80,865.94 931.21,867.73 929.94,869.34 C927.85,872.01 926.00,872.81 926.00,871.06 ZM 580.84 857.12 C581.57,856.66 582.02,855.20 581.84,853.89 C581.57,851.98 580.90,851.50 578.50,851.50 C576.10,851.50 575.43,851.98 575.16,853.89 C574.84,856.16 576.32,857.97 578.50,857.97 C579.05,857.97 580.10,857.59 580.84,857.12 ZM 912.00 844.95 C912.00,846.45 914.55,846.25 915.89,844.63 C917.34,842.88 915.96,841.77 910.38,840.18 C905.39,838.75 905.00,838.73 905.00,839.99 C905.00,840.53 906.58,841.63 908.50,842.44 C910.42,843.24 912.00,844.37 912.00,844.95 ZM 857.68 845.41 C858.18,848.48 858.49,848.81 860.13,847.93 C862.79,846.51 862.26,839.00 859.49,839.00 C857.67,839.00 857.02,841.33 857.68,845.41 ZM 744.08 836.07 C742.87,835.30 742.91,834.79 744.35,832.59 C746.14,829.85 747.57,829.44 749.97,830.96 C751.22,831.75 751.07,832.29 749.05,834.45 C746.39,837.27 746.12,837.36 744.08,836.07 ZM 631.80 847.80 C633.67,845.93 633.26,843.00 631.12,843.00 C628.72,843.00 626.60,845.53 627.36,847.49 C628.05,849.30 630.15,849.45 631.80,847.80 ZM 667.42 850.39 C669.30,849.67 669.53,846.36 667.75,845.72 C664.63,844.60 661.21,849.11 664.25,850.34 C664.94,850.62 665.58,850.88 665.67,850.92 C665.76,850.96 666.55,850.73 667.42,850.39 ZM 524.00 848.09 C524.00,847.62 523.33,846.68 522.50,846.00 C521.30,845.01 520.70,845.01 519.50,846.00 C517.68,847.51 517.55,849.67 519.25,850.28 C520.72,850.81 524.00,849.30 524.00,848.09 ZM 640.50 848.11 C640.50,846.68 637.43,844.21 636.67,845.04 C636.44,845.29 635.93,846.55 635.53,847.83 C634.89,849.92 635.10,850.12 637.66,849.83 C639.26,849.64 640.50,848.89 640.50,848.11 ZM 487.00 836.45 C487.00,838.20 492.73,837.14 493.46,835.25 C493.78,834.41 493.83,833.49 493.56,833.22 C492.71,832.37 487.00,835.18 487.00,836.45 ZM 512.59 837.15 C513.27,838.24 513.72,838.22 516.07,836.96 C518.46,835.68 518.54,834.42 516.28,833.55 C514.45,832.85 511.64,835.60 512.59,837.15 ZM 666.19 835.26 C668.04,835.92 671.00,834.21 671.00,832.46 C671.00,830.41 668.63,830.64 666.59,832.90 C665.27,834.36 665.18,834.90 666.19,835.26 ZM 658.00 836.70 C658.00,838.68 660.79,838.25 661.95,836.10 C662.70,834.69 662.61,834.07 661.60,833.68 C660.04,833.08 658.00,834.79 658.00,836.70 ZM 489.59 856.15 C490.22,857.16 494.00,855.34 494.00,854.02 C494.00,853.53 493.48,852.80 492.85,852.41 C491.56,851.61 488.77,854.82 489.59,856.15 ZM 521.51 835.01 C521.88,835.61 522.70,835.93 523.34,835.72 C524.75,835.26 525.52,831.00 524.19,831.00 C522.66,831.00 520.77,833.82 521.51,835.01 ZM 575.25 861.33 C578.56,862.66 579.19,860.20 576.07,858.13 C574.20,856.89 574.00,856.96 574.00,858.79 C574.00,859.92 574.56,861.06 575.25,861.33 ZM 745.17 833.35 C744.92,834.67 745.33,835.08 746.65,834.83 C747.65,834.64 748.64,833.65 748.83,832.65 C749.08,831.33 748.67,830.92 747.35,831.17 C746.35,831.36 745.36,832.35 745.17,833.35 ZM 782.13 843.50 C782.23,847.35 782.26,847.39 783.00,844.50 C783.42,842.85 783.81,840.38 783.87,839.00 C783.95,837.04 783.76,836.82 783.00,838.00 C782.47,838.83 782.08,841.30 782.13,843.50 ZM 483.67 857.33 C484.82,858.48 486.00,858.06 486.00,856.50 C486.00,855.67 485.33,855.00 484.50,855.00 C482.94,855.00 482.52,856.18 483.67,857.33 ZM 667.67 844.33 C668.82,845.48 670.00,845.06 670.00,843.50 C670.00,842.67 669.33,842.00 668.50,842.00 C666.94,842.00 666.52,843.18 667.67,844.33 ZM 538.10 838.31 C538.19,841.36 538.24,841.39 539.00,839.00 C540.15,835.41 540.15,833.79 539.00,834.50 C538.45,834.84 538.04,836.55 538.10,838.31 ZM 693.03 841.50 C693.03,843.16 693.20,843.24 694.00,842.00 C694.53,841.17 694.97,839.60 694.97,838.50 C694.97,836.84 694.80,836.76 694.00,838.00 C693.47,838.83 693.03,840.40 693.03,841.50 ZM 522.46 843.93 C523.27,845.25 525.00,845.34 525.00,844.06 C525.00,842.88 523.05,841.62 522.33,842.33 C522.04,842.63 522.10,843.35 522.46,843.93 ZM 731.35 863.92 C738.49,863.83 748.21,862.70 755.11,861.17 C753.44,861.64 751.66,862.07 749.79,862.45 C744.59,863.49 737.20,864.00 731.35,863.92 ZM 619.63 857.98 C621.66,857.76 624.18,856.98 626.97,855.71 C626.91,855.75 626.84,855.79 626.78,855.83 C624.77,857.07 622.16,857.85 619.63,857.98 ZM 750.58 857.25 C746.41,857.65 741.23,857.93 737.00,857.94 C736.54,857.95 736.09,857.95 735.66,857.95 C737.06,857.92 738.65,857.87 740.46,857.82 C744.22,857.70 747.79,857.50 750.58,857.25 ZM 894.88 857.75 C894.18,857.74 893.43,857.68 892.62,857.55 C891.25,857.34 890.06,857.19 888.92,857.09 C890.14,857.19 891.47,857.34 893.01,857.55 C893.71,857.65 894.33,857.72 894.88,857.75 ZM 722.54 856.16 C722.83,856.33 723.10,856.48 723.36,856.62 C722.99,856.44 722.62,856.24 722.25,856.01 L 720.93 855.21 Z" fill="rgb(195,124,42)"/>
<path d="M 879.13 868.65 C877.45,866.63 881.03,863.72 884.21,864.52 C885.81,864.92 887.10,864.59 887.95,863.56 C889.31,861.92 892.54,861.45 893.36,862.78 C893.63,863.21 893.00,864.67 891.97,866.03 C890.29,868.23 889.85,868.36 887.94,867.18 C886.05,866.01 885.61,866.10 884.34,867.93 C882.67,870.32 880.73,870.59 879.13,868.65 ZM 722.50 862.88 C719.75,861.22 719.03,859.96 719.02,856.76 L 719.00 854.03 L 722.25 856.01 C725.01,857.69 727.24,857.99 737.00,857.94 C743.33,857.92 751.78,857.31 755.78,856.59 C762.87,855.32 765.51,855.89 763.20,858.20 C759.28,862.12 727.33,865.79 722.50,862.88 ZM 575.25 861.33 C574.56,861.06 574.00,859.92 574.00,858.79 C574.00,856.96 574.20,856.89 576.07,858.13 C579.19,860.20 578.56,862.66 575.25,861.33 ZM 195.44 860.06 C181.51,856.73 169.59,842.64 168.26,827.92 L 167.72 821.95 L 241.11 822.22 L 314.50 822.50 L 320.63 825.71 C330.49,830.85 336.92,839.80 339.05,851.29 C339.79,855.31 339.78,857.55 339.01,858.98 C337.94,860.98 337.21,861.00 268.21,860.90 C229.87,860.84 197.12,860.47 195.44,860.06 ZM 606.00 858.95 C606.00,857.06 613.85,853.47 619.00,853.00 C623.76,852.57 624.54,852.20 624.82,850.25 C625.18,847.69 625.40,847.61 628.08,849.04 C629.33,849.71 630.63,849.75 631.72,849.14 C632.93,848.46 633.74,848.63 634.54,849.72 C635.47,851.00 634.59,851.81 629.19,854.63 C625.01,856.81 621.26,858.02 618.61,858.04 C616.35,858.07 612.59,858.46 610.25,858.91 C607.91,859.36 606.00,859.38 606.00,858.95 ZM 809.25 857.19 C811.09,854.99 817.01,853.00 821.74,853.00 C826.18,853.00 826.22,853.03 824.76,855.25 C823.49,857.16 822.13,857.58 815.72,858.00 C809.57,858.41 808.37,858.26 809.25,857.19 ZM 483.67 857.33 C482.52,856.18 482.94,855.00 484.50,855.00 C485.33,855.00 486.00,855.67 486.00,856.50 C486.00,858.06 484.82,858.48 483.67,857.33 ZM 504.64 855.37 C503.19,853.80 502.00,852.20 502.00,851.82 C502.00,850.23 503.96,850.10 506.65,851.50 C510.59,853.55 513.73,853.37 514.99,851.01 C515.84,849.43 516.47,849.23 518.03,850.01 C519.11,850.55 520.89,851.45 521.99,852.00 C523.08,852.55 526.00,853.00 528.49,853.00 C530.97,853.00 533.00,853.39 533.00,853.88 C533.00,855.94 529.80,857.08 524.34,856.95 C521.13,856.88 515.98,857.13 512.89,857.52 C507.60,858.18 507.14,858.07 504.64,855.37 ZM 668.19 857.14 C667.47,856.68 663.62,856.52 659.63,856.77 C651.25,857.31 648.98,856.00 649.03,850.68 L 649.06 847.50 L 651.12 850.25 C653.45,853.38 658.52,854.04 660.40,851.46 C661.42,850.08 661.97,850.08 665.89,851.46 C668.29,852.31 672.33,853.01 674.88,853.03 L 679.50 853.06 L 676.69 855.53 C673.85,858.03 670.58,858.65 668.19,857.14 ZM 872.74 856.01 C870.26,854.06 869.10,850.23 870.56,848.77 C870.87,848.46 872.20,849.29 873.52,850.61 C876.10,853.19 880.70,853.77 884.13,851.93 C885.58,851.15 886.52,851.18 887.55,852.04 C888.46,852.80 891.51,853.08 895.99,852.83 C899.85,852.61 903.00,852.75 903.00,853.14 C903.00,853.54 901.77,854.82 900.26,856.01 C898.02,857.77 896.70,858.05 893.01,857.55 C887.24,856.77 884.46,856.77 879.49,857.54 C876.28,858.04 874.93,857.73 872.74,856.01 ZM 455.75 856.28 C452.51,855.79 452.18,853.99 455.02,852.22 C456.46,851.32 457.60,851.25 458.96,851.98 C460.01,852.54 462.67,853.00 464.88,853.00 C469.70,853.00 471.12,854.62 467.50,856.00 C464.89,856.99 461.04,857.08 455.75,856.28 ZM 489.59 856.15 C488.77,854.82 491.56,851.61 492.85,852.41 C493.48,852.80 494.00,853.53 494.00,854.02 C494.00,855.34 490.22,857.16 489.59,856.15 ZM 580.00 850.80 C578.08,849.61 576.31,848.49 576.09,848.32 C575.86,848.15 576.19,846.88 576.82,845.50 C579.05,840.60 585.00,843.74 585.00,849.83 C585.00,853.57 584.60,853.65 580.00,850.80 ZM 478.75 850.92 C476.38,849.54 476.55,847.77 479.31,845.17 C482.05,842.60 485.23,842.37 487.09,844.61 C488.25,846.01 487.99,846.62 485.20,849.11 C481.64,852.30 481.28,852.40 478.75,850.92 ZM 447.47 847.96 C446.32,846.09 449.22,843.81 452.19,844.24 C454.05,844.51 455.57,844.03 456.66,842.83 C458.80,840.46 461.00,840.49 461.00,842.88 C461.00,845.41 458.53,847.30 456.19,846.56 C455.06,846.20 453.76,846.58 453.02,847.48 C451.57,849.22 448.42,849.50 447.47,847.96 ZM 857.68 845.41 C857.02,841.33 857.67,839.00 859.49,839.00 C862.26,839.00 862.79,846.51 860.13,847.93 C858.49,848.81 858.18,848.48 857.68,845.41 ZM 641.55 845.75 C641.04,844.59 639.67,844.00 637.45,844.00 C635.62,844.00 633.84,843.55 633.50,843.00 C633.16,842.45 631.78,842.00 630.44,842.00 C627.82,842.00 627.11,840.28 629.38,839.41 C630.73,838.89 639.20,841.26 641.85,842.90 C642.59,843.36 643.00,844.59 642.75,845.62 C642.34,847.37 642.26,847.38 641.55,845.75 ZM 782.13 843.50 C782.08,841.30 782.47,838.83 783.00,838.00 C783.76,836.82 783.95,837.04 783.87,839.00 C783.81,840.38 783.42,842.85 783.00,844.50 C782.26,847.39 782.23,847.35 782.13,843.50 ZM 740.46 844.94 C739.26,842.99 742.99,840.05 745.92,840.63 C747.69,840.99 749.06,840.63 749.93,839.59 C751.33,837.89 754.54,837.45 755.40,838.84 C755.68,839.30 755.22,840.67 754.36,841.90 C753.16,843.61 752.18,843.98 750.06,843.51 C748.22,843.11 746.90,843.42 746.04,844.46 C744.56,846.23 741.43,846.50 740.46,844.94 ZM 912.00 844.95 C912.00,844.37 910.42,843.24 908.50,842.44 C906.58,841.63 905.00,840.53 905.00,839.99 C905.00,838.73 905.39,838.75 910.38,840.18 C915.96,841.77 917.34,842.88 915.89,844.63 C914.55,846.25 912.00,846.45 912.00,844.95 ZM 522.46 843.93 C522.10,843.35 522.04,842.63 522.33,842.33 C523.05,841.62 525.00,842.88 525.00,844.06 C525.00,845.34 523.27,845.25 522.46,843.93 ZM 667.67 844.33 C666.52,843.18 666.94,842.00 668.50,842.00 C669.33,842.00 670.00,842.67 670.00,843.50 C670.00,845.06 668.82,845.48 667.67,844.33 ZM 693.03 841.50 C693.03,840.40 693.47,838.83 694.00,838.00 C694.80,836.76 694.97,836.84 694.97,838.50 C694.97,839.60 694.53,841.17 694.00,842.00 C693.20,843.24 693.03,843.16 693.03,841.50 ZM 538.10 838.31 C538.04,836.55 538.45,834.84 539.00,834.50 C540.15,833.79 540.15,835.41 539.00,839.00 C538.24,841.39 538.19,841.36 538.10,838.31 ZM 572.47 838.96 C571.60,837.54 573.84,835.00 575.96,835.00 C578.64,835.00 579.15,836.17 577.35,838.17 C575.50,840.21 573.45,840.54 572.47,838.96 ZM 819.44 838.90 C819.06,838.29 819.62,836.94 820.67,835.89 C822.33,834.23 822.83,834.15 824.45,835.34 C826.93,837.16 825.80,840.00 822.59,840.00 C821.23,840.00 819.81,839.50 819.44,838.90 ZM 487.00 836.45 C487.00,835.18 492.71,832.37 493.56,833.22 C493.83,833.49 493.78,834.41 493.46,835.25 C492.73,837.14 487.00,838.20 487.00,836.45 ZM 512.59 837.15 C511.64,835.60 514.45,832.85 516.28,833.55 C518.54,834.42 518.46,835.68 516.07,836.96 C513.72,838.22 513.27,838.24 512.59,837.15 ZM 580.47 836.96 C579.57,835.49 581.87,833.00 584.12,833.00 C586.24,833.00 586.60,835.00 584.80,836.80 C583.32,838.28 581.33,838.35 580.47,836.96 ZM 658.00 836.70 C658.00,834.79 660.04,833.08 661.60,833.68 C662.61,834.07 662.70,834.69 661.95,836.10 C660.79,838.25 658.00,838.68 658.00,836.70 ZM 828.46 836.94 C828.10,836.35 828.59,835.00 829.56,833.94 C831.54,831.75 831.92,831.66 833.96,832.95 C835.21,833.74 835.15,834.18 833.56,835.94 C831.51,838.20 829.48,838.59 828.46,836.94 ZM 521.51 835.01 C520.77,833.82 522.66,831.00 524.19,831.00 C525.52,831.00 524.75,835.26 523.34,835.72 C522.70,835.93 521.88,835.61 521.51,835.01 ZM 666.19 835.26 C665.18,834.90 665.27,834.36 666.59,832.90 C668.63,830.64 671.00,830.41 671.00,832.46 C671.00,834.21 668.04,835.92 666.19,835.26 ZM 745.17 833.35 C745.36,832.35 746.35,831.36 747.35,831.17 C748.67,830.92 749.08,831.33 748.83,832.65 C748.64,833.65 747.65,834.64 746.65,834.83 C745.33,835.08 744.92,834.67 745.17,833.35 Z" fill="rgb(209,127,31)"/>
</g>
</svg>